<?xml version="1.0" standalone="no"?>
<!DOCTYPE svg PUBLIC "-//W3C//DTD SVG 20010904//EN"
 "http://www.w3.org/TR/2001/REC-SVG-20010904/DTD/svg10.dtd">
<svg version="1.0" xmlns="http://www.w3.org/2000/svg"
 width="784.000000pt" height="784.000000pt" viewBox="0 0 784.000000 784.000000"
 preserveAspectRatio="xMidYMid meet">
<metadata>
Created by potrace 1.11, written by Peter Selinger 2001-2013
</metadata>
<g transform="translate(0.000000,784.000000) scale(0.100000,-0.100000)"
fill="#000000" stroke="none">
<path d="M1467 7012 c-63 -3 -67 -4 -62 -25 2 -12 7 -67 10 -122 3 -55 8 -120
11 -145 2 -25 6 -81 9 -125 2 -44 4 -80 5 -80 1 0 6 -59 25 -335 12 -164 14
-196 20 -290 8 -135 14 -215 15 -215 1 0 3 -43 15 -245 3 -47 7 -114 9 -150 3
-36 7 -112 10 -170 3 -58 8 -145 11 -195 8 -111 13 -208 20 -390 3 -77 7 -187
10 -245 4 -97 10 -260 20 -515 6 -152 14 -346 19 -485 3 -69 8 -186 11 -260 3
-74 8 -187 10 -250 3 -63 7 -178 10 -255 4 -77 8 -183 10 -235 2 -52 6 -162
10 -245 3 -82 8 -204 10 -270 6 -154 13 -313 21 -495 3 -80 7 -191 9 -248 2
-57 5 -105 8 -108 4 -4 610 -5 1863 -4 l391 0 2 127 c2 71 4 196 6 278 2 83 6
276 10 430 4 154 8 337 9 408 2 70 6 130 9 133 7 7 282 7 412 -1 140 -8 228
-14 255 -19 14 -2 52 -7 85 -11 33 -3 74 -9 90 -12 17 -3 46 -7 65 -9 67 -7
125 -15 163 -24 20 -4 37 -5 38 -1 0 3 2 13 4 21 4 24 47 282 50 310 2 14 11
63 20 110 9 47 18 99 20 115 3 17 7 40 10 53 3 12 7 32 10 45 3 12 8 36 11 52
3 17 14 68 24 115 10 47 21 96 24 110 2 14 12 59 21 100 30 137 30 137 -2 134
-31 -2 -179 -13 -263 -20 -30 -2 -91 -6 -135 -9 -44 -2 -127 -7 -185 -10 -58
-4 -152 -8 -210 -10 -58 -2 -105 -4 -105 -5 0 -1 -79 -2 -175 -3 l-175 -1 1
29 c1 17 5 93 9 170 4 77 8 159 9 182 1 23 5 45 8 49 4 3 3 16 -2 29 -5 13 -7
25 -4 28 3 2 7 42 9 88 12 230 15 291 20 369 3 47 7 134 10 195 3 60 7 117 10
125 6 18 36 18 465 6 195 -6 395 -19 395 -25 0 -1 32 -3 70 -6 39 -2 84 -6
100 -9 17 -3 57 -7 90 -10 56 -6 103 -12 167 -22 20 -3 27 0 27 13 0 23 8 156
15 248 3 39 8 108 11 155 3 47 8 117 10 155 5 69 11 155 20 290 2 39 7 111 10
160 4 50 8 117 10 150 12 199 15 244 30 440 2 28 7 104 10 170 4 66 9 138 11
160 2 22 6 78 9 125 3 47 7 119 10 160 3 41 7 112 10 158 2 46 7 87 10 92 4 6
0 12 -7 15 -14 6 -4014 12 -4131 7z"/>
</g>
</svg>
