<?xml version="1.0" encoding="UTF-8" standalone="no"?>
<svg xmlns="http://www.w3.org/2000/svg" version="1.1" id="svg2" viewBox="0 0 700.14739 310.24204" height="87.557198mm" width="197.59715mm">
  <defs id="defs4" />
  <g transform="translate(-30.640628,-244.38044)" id="layer1">
    <path
       id="path4825"
       d="m 48.357173,279.83189 54.592807,0 54.5928,0 c -6.83226,30.75693 -8.37466,64.82536 -8.47132,92.05627 l -60.428572,0 0,56.52299 54.515342,-4.75194 c -2.80484,10.66701 -7.14331,21.5495 -7.42365,32.61387 l -0.0917,7.67136 -45.563296,0 -3.150992,53.80519 -21.785715,1.42857 -16.785714,0 c 1.1e-5,-79.7821 1e-5,-159.56421 1e-5,-239.34631 z M 181.94303,480.82142 c -0.38493,-21.09623 -2.651,-74.95328 -5.03572,-119.68235 l -4.33585,-81.32556 58.90711,0.009 58.9071,0.009 -3.47065,47.56241 c -1.90887,26.15932 -5.29905,80.01224 -7.53375,119.67316 l -4.06309,72.11071 -46.33765,0 -46.33764,0 -0.69986,-38.35678 z m 130.97855,-116.60461 -4.32686,-84.38492 43.09001,0 43.09,0 c 19.62051,12.49728 44.70556,34.81096 63.15388,49.09668 0,-16.36556 0,-32.73112 0,-49.09668 l 28.53571,-0.009 28.53572,-0.009 -4.36663,78.25624 c -2.40164,43.04093 -4.66771,96.90034 -5.03571,119.68758 l -0.66909,41.43171 -62.10714,-42.2282 -62.10715,-42.22821 c -1.55237,28.80599 -4.05568,58.26399 -6.39421,84.44437 l -26.82221,0 -27.5365,-0.71429 c -2.51932,-51.87622 -4.56702,-106.70111 -7.03982,-154.24628 z m 271.01226,7.67135 c -17.3827,0 -34.76539,0 -52.14809,0 l 0,-46.02813 0,-46.02814 c 60.42857,0 120.85715,0 181.28572,0 0,30.68542 0,61.37085 0,92.05627 -8.34396,0 -16.68792,0 -25.03188,0 -5.33076,50.11949 -4.97525,106.14414 -8.53955,147.29004 l -39.50262,0 -47.35976,0 c -0.85574,-49.45047 -3.92339,-104.9817 -8.70382,-147.29004 z"
       style="fill:#fd0000;fill-opacity:1" />
  </g>
</svg>
