<?xml version="1.0" encoding="UTF-8" standalone="no"?>
<svg xmlns="http://www.w3.org/2000/svg" viewBox="0 0 230.3125 98.333374" version="1.1" >
  <g transform="matrix(1.25,0,0,-1.25,0,98.333375)" style="fill:#fff;fill-opacity:1;fill-rule:nonzero;stroke:none">
    <!-- F -->
    <g transform="translate(44.9458,70.3486)">
      <path d="m 0,0 -1.654,-25.075 c -0.995,0.159 -3.104,0.385 -6.329,0.677 -1.936,0.079 -4.222,0.133 -6.856,0.159 l -0.686,-12.837 c 2.768,-0.053 7.042,0.147 12.823,0.599 -0.27,-1.196 -0.685,-3.164 -1.25,-5.9 -0.297,-1.621 -0.619,-3.575 -0.968,-5.86 -0.753,0.159 -2.487,0.398 -5.202,0.718 -2.016,0.158 -4.005,0.212 -5.967,0.158 l -0.323,-13.872 -22.621,0 -1.25,31.254 C -40.5,-22.804 -41.105,-12.81 -42.1,0 L 0,0 Z" />
    </g>
    <!-- I -->
    <g transform="translate(75.9972,70.3486)">
      <path d="m 0,0 -1.573,-32.57 c -0.297,-7.016 -0.645,-16.571 -1.049,-28.663 l -22.621,0 L -27.985,0 0,0 Z" />
    </g>
    <!-- N -->
    <g transform="translate(128.78,70.3486)">
      <path d="m 0,0 c -0.378,-5.369 -0.902,-14.738 -1.573,-28.105 -0.402,-9.833 -0.741,-21.143 -1.009,-33.926 -3.521,2.738 -8.884,6.818 -16.089,12.239 -3.118,2.152 -7.77,5.382 -13.952,9.688 l -0.402,-21.129 -12.986,0 c -0.215,5.395 -0.712,15.573 -1.491,30.537 -0.673,12.118 -1.359,22.35 -2.057,30.696 l 20.244,0 15,-14.033 c 0,3.215 -0.055,5.741 -0.161,7.574 -0.081,1.621 -0.243,3.774 -0.485,6.459 L 0,0 Z" />
    </g>
    <!-- T -->
    <g transform="translate(181.4043,70.3486)">
      <path d="m 0,0 -1.169,-25.075 c -1.049,0.159 -2.728,0.358 -5.04,0.597 -1.425,0.08 -3.738,0.159 -6.937,0.239 -0.161,-1.568 -0.443,-5.355 -0.847,-11.361 -0.296,-5.821 -0.779,-14.365 -1.451,-25.633 l -19.517,0 c -0.215,5.368 -0.619,13.805 -1.209,25.314 -0.269,3.987 -0.551,7.88 -0.847,11.68 l -6.371,-0.239 -5.767,-0.597 L -50.164,0 0,0 Z" />
    </g>
  </g>
</svg>
